# xmcd
#
# Track frame offsets:
#	150
#	19365
#	30035
#	45860
#	61785
#	74230
#	89215
#	102855
#	123390
#	137610
#	156490
#	171660
#	191492
#	206147
#	220237
#	236072
#	250857
#	263740
#	280960
#	294405
#
# Disc length: 4115 seconds
#
# Revision: 0
# Processed by: cddbd v1.5.1PL0 Copyright (c) Steve Scherf et al.
# Submitted via: dBpowerAMP V4.0
#
DISCID=33101114
DTITLE=Vikki Carr - Personalidad
DYEAR=1991
DGENRE=Balada
TTITLE0=Cosas del Amor (duo con Ana Gabriel)
TTITLE1=Si Nos Dejan
TTITLE2=Total
TTITLE3=El Tiempo Que Te Quede Libre
TTITLE4=Ni Pricesa Ni Esclava
TTITLE5=Hasta Que Vuelvas
TTITLE6=Poquito a Poco
TTITLE7=Esos Hombres
TTITLE8=Hay Otro En Tu Lugar
TTITLE9=Grande, Grande, Grande
TTITLE10=Disculpame
TTITLE11=Mala Suerte
TTITLE12=Motivos
TTITLE13=Somos novios
TTITLE14=Se Acabo
TTITLE15=Abrazame
TTITLE16=Esta Tarde Vi Llover
TTITLE17=Por Amor
TTITLE18=Amanece
TTITLE19=Y Volver
EXTD=
EXTT0=
EXTT1=
EXTT2=
EXTT3=
EXTT4=
EXTT5=
EXTT6=
EXTT7=
EXTT8=
EXTT9=
EXTT10=
EXTT11=
EXTT12=
EXTT13=
EXTT14=
EXTT15=
EXTT16=
EXTT17=
EXTT18=
EXTT19=
PLAYORDER=
